<svg xmlns="http://www.w3.org/2000/svg" width="302" height="234" viewBox="0 0 302 234" version="1.1"><path d="M 156.216 69.529 C 149.813 72.264, 148.926 80.843, 154.538 85.750 C 160.121 90.632, 168.647 87.047, 169.675 79.386 C 170.150 75.844, 169.834 74.868, 167.363 72.238 C 163.848 68.499, 160.521 67.691, 156.216 69.529" stroke="none" fill="#f99259" fill-rule="evenodd"/><path d="M 130 7.585 C 115.370 10.289, 87.597 22.497, 71.500 33.300 C 68.200 35.515, 62.110 40.741, 57.967 44.913 C 52.091 50.831, 49.781 54.040, 47.467 59.500 C 45.835 63.350, 41.507 72.577, 37.849 80.004 C 29.802 96.340, 28.460 102.149, 29.355 116.773 C 30.193 130.469, 32.096 134.652, 39.856 139.851 C 42.960 141.931, 46.958 144.218, 48.740 144.933 L 51.980 146.235 49.490 149.194 C 41.671 158.486, 47.082 169.870, 66.974 185.979 C 81.072 197.396, 87.650 200.953, 99.301 203.461 C 102.067 204.056, 102.094 204.016, 101.400 200.282 C 100.397 194.880, 97.654 188.857, 93.184 182.243 C 87.162 173.334, 84.998 166.442, 85.011 156.212 C 85.037 134.905, 96.620 116.819, 120.198 101.272 C 135.473 91.199, 140.990 84.834, 140.996 77.273 C 140.999 73.884, 140.512 72.727, 138.541 71.435 C 135.288 69.303, 130.697 70.329, 128.960 73.575 C 128.230 74.938, 126.478 76.294, 125.067 76.587 C 123.655 76.881, 121.665 77.577, 120.645 78.134 C 119.325 78.855, 118.987 78.830, 119.472 78.046 C 119.846 77.440, 121.806 76.167, 123.826 75.218 C 126.195 74.105, 127.614 72.692, 127.820 71.242 C 128.262 68.137, 125.580 67.353, 121.375 69.358 C 116.632 71.620, 113.722 71.584, 116.977 69.303 L 119.399 67.607 116.450 66.384 C 110.605 63.962, 116.804 63.666, 128.826 65.792 C 139.876 67.747, 140.687 67.767, 144 66.179 C 146.490 64.984, 147.588 63.741, 147.805 61.868 C 148.467 56.155, 134.441 49.083, 122.145 48.930 C 118.067 48.879, 117.055 48.621, 118.500 48 C 119.600 47.527, 121.963 47.109, 123.750 47.070 C 127.499 46.989, 128.077 44.898, 125.250 41.643 C 123.679 39.834, 123.908 39.868, 127.500 41.974 C 129.700 43.264, 131.927 44.698, 132.450 45.160 C 134.180 46.690, 135 46.035, 135 43.122 C 135 38.823, 132.233 33.027, 129.718 32.056 C 127.782 31.309, 127.716 31.113, 129.202 30.512 C 130.138 30.133, 131.376 30.114, 131.952 30.470 C 134.047 31.765, 132.938 28.070, 130.777 26.557 C 129.157 25.422, 128.980 25, 130.123 25 C 132.803 25, 135.084 28.558, 136.959 35.665 C 139.491 45.261, 140.356 47.070, 144.153 50.701 C 148.399 54.762, 159.866 60, 164.510 60 C 174.541 60, 183.193 51.195, 180.059 44.176 L 178.864 41.500 181.105 43.701 C 182.510 45.081, 183.375 47.177, 183.423 49.320 C 183.529 54.041, 184.964 53.147, 190.481 44.925 C 193.036 41.116, 195.759 38, 196.532 38 C 197.368 38, 197.705 38.605, 197.364 39.494 C 196.997 40.451, 197.615 41.292, 199.088 41.837 L 201.385 42.687 198.855 43.322 C 195.568 44.147, 191 47.759, 191 49.534 C 191 50.305, 192.754 51.395, 194.940 51.984 C 197.107 52.567, 199.920 53.926, 201.190 55.002 C 202.461 56.079, 204.625 57.876, 206 58.996 L 208.500 61.032 205.746 59.854 C 202.289 58.374, 201.341 59.259, 202.845 62.559 C 204.704 66.639, 202.223 64.357, 199.945 59.892 C 193.555 47.366, 178 56.767, 178 73.154 C 178 82.797, 182.351 88.562, 189.510 88.406 C 192.995 88.330, 194.983 87.431, 200.004 83.656 C 203.411 81.095, 206.716 79.007, 207.349 79.015 C 207.982 79.024, 207.825 79.460, 207 79.985 C 205.764 80.771, 205.720 81.293, 206.750 82.956 C 208.449 85.698, 208.452 85.693, 204.600 86.415 C 200.391 87.205, 198.271 89.417, 199.874 91.348 C 200.489 92.089, 203.060 93.548, 205.587 94.590 C 209.528 96.216, 209.862 96.560, 207.935 97.015 C 204.019 97.940, 203.389 100.330, 206.063 104.118 L 208.450 107.500 204.975 104.593 C 200.203 100.600, 191.517 96.909, 185.411 96.279 C 173.403 95.039, 165.909 104.666, 170.440 115.510 C 171.256 117.464, 171.485 119.200, 170.969 119.519 C 170.468 119.829, 169.772 118.938, 169.421 117.541 C 168.622 114.356, 167.278 114.295, 165.873 117.379 C 165.128 119.015, 164.202 119.604, 162.907 119.266 C 161.101 118.793, 161.112 118.652, 163.172 115.759 C 164.364 114.084, 165.494 110.690, 165.715 108.122 C 166.448 99.581, 160.309 94, 150.182 94 C 141.659 94, 128.007 102.197, 113.609 115.958 C 90.407 138.135, 87.064 158.311, 102.691 181.854 C 110.198 193.163, 112.738 206.709, 109.626 218.831 C 107.156 228.448, 106.827 228, 116.363 228 L 124.727 228 127.493 221.836 C 133.215 209.085, 137.048 196.887, 139.575 183.383 C 140.108 180.534, 145.385 175.508, 151.554 171.974 L 156.608 169.078 174.898 169.102 C 189.264 169.122, 194.329 168.768, 198.507 167.454 C 205.033 165.401, 210.708 160.050, 216.046 150.917 C 218.162 147.296, 220.632 143.720, 221.534 142.972 C 223.352 141.463, 232.287 141.322, 252.510 142.484 L 264.521 143.174 269.746 139.013 C 278.694 131.889, 292 109.520, 292 101.602 C 292 97.268, 285.765 75.437, 282.906 69.762 C 277.851 59.728, 275.219 57.476, 241.099 33.991 C 213.115 14.729, 208.960 12.986, 182.869 9.568 C 171.370 8.062, 134.835 6.691, 130 7.585" stroke="none" fill="#a454f4" fill-rule="evenodd"/></svg>